name Run_400 01_newCOP3_v24.mot
datacolumns 19
datarows 25
range 0.08333300 0.10833300
endheader
                time	   R_ground_force_vx	   R_ground_force_vy	   R_ground_force_vz	   R_ground_force_px	   R_ground_force_py	   R_ground_force_pz	   L_ground_force_vx	   L_ground_force_vy	   L_ground_force_vz	   L_ground_force_px	   L_ground_force_py	   L_ground_force_pz	   R_ground_torque_x	   R_ground_torque_y	   R_ground_torque_z	   L_ground_torque_x	   L_ground_torque_y	   L_ground_torque_z	
          0.08333300	         56.98714800	       1809.83093300	         89.22476200	          1.03558900	          0.00000000	         -0.29418900	          0.00000000	          0.00000000	          0.00000000	          0.00000000	          0.00000000	          0.00000000	          0.00000000	        -24.30162600	          0.00000000	          0.00000000	          0.00000000	          0.00000000	
          0.08437500	         63.51582000	       1798.33606000	         86.43940700	          1.03171500	          0.00000000	         -0.29495400	          0.00000000	          0.00000000	          0.00000000	          0.00000000	          0.00000000	          0.00000000	          0.00000000	        -23.07560500	          0.00000000	          0.00000000	          0.00000000	          0.00000000	
          0.08541700	         70.20909900	       1786.37170400	         83.58906600	          1.02770100	          0.00000000	         -0.29573800	          0.00000000	          0.00000000	          0.00000000	          0.00000000	          0.00000000	          0.00000000	          0.00000000	        -21.86398100	          0.00000000	          0.00000000	          0.00000000	          0.00000000	
          0.08645800	         77.01732600	       1773.95715300	         80.69824200	          1.02357500	          0.00000000	         -0.29653400	          0.00000000	          0.00000000	          0.00000000	          0.00000000	          0.00000000	          0.00000000	          0.00000000	        -20.66897600	          0.00000000	          0.00000000	          0.00000000	          0.00000000	
          0.08750000	         83.89701100	       1761.10144000	         77.79078700	          1.01936100	          0.00000000	         -0.29733400	          0.00000000	          0.00000000	          0.00000000	          0.00000000	          0.00000000	          0.00000000	          0.00000000	        -19.49274800	          0.00000000	          0.00000000	          0.00000000	          0.00000000	
          0.08854200	         90.80964700	       1747.80749500	         74.88972500	          1.01508200	          0.00000000	         -0.29812900	          0.00000000	          0.00000000	          0.00000000	          0.00000000	          0.00000000	          0.00000000	          0.00000000	        -18.33738500	          0.00000000	          0.00000000	          0.00000000	          0.00000000	
          0.08958300	         97.72123700	       1734.07617200	         72.01712800	          1.01075800	          0.00000000	         -0.29891200	          0.00000000	          0.00000000	          0.00000000	          0.00000000	          0.00000000	          0.00000000	          0.00000000	        -17.20488400	          0.00000000	          0.00000000	          0.00000000	          0.00000000	
          0.09062500	        104.60212700	       1719.90661600	         69.19387100	          1.00640700	          0.00000000	         -0.29967800	          0.00000000	          0.00000000	          0.00000000	          0.00000000	          0.00000000	          0.00000000	          0.00000000	        -16.09715100	          0.00000000	          0.00000000	          0.00000000	          0.00000000	
          0.09166700	        111.42689500	       1705.29858400	         66.43949100	          1.00204400	          0.00000000	         -0.30042100	          0.00000000	          0.00000000	          0.00000000	          0.00000000	          0.00000000	          0.00000000	          0.00000000	        -15.01598900	          0.00000000	          0.00000000	          0.00000000	          0.00000000	
          0.09270800	        118.17425500	       1690.25231900	         63.77193100	          0.99768400	          0.00000000	         -0.30113500	          0.00000000	          0.00000000	          0.00000000	          0.00000000	          0.00000000	          0.00000000	          0.00000000	        -13.96309500	          0.00000000	          0.00000000	          0.00000000	          0.00000000	
          0.09375000	        124.82685100	       1674.76904300	         61.20740500	          0.99333600	          0.00000000	         -0.30181800	          0.00000000	          0.00000000	          0.00000000	          0.00000000	          0.00000000	          0.00000000	          0.00000000	        -12.94004400	          0.00000000	          0.00000000	          0.00000000	          0.00000000	
          0.09479200	        131.37091100	       1658.85107400	         58.76020400	          0.98901000	          0.00000000	         -0.30246500	          0.00000000	          0.00000000	          0.00000000	          0.00000000	          0.00000000	          0.00000000	          0.00000000	        -11.94829700	          0.00000000	          0.00000000	          0.00000000	          0.00000000	
          0.09583300	        137.79579200	       1642.50219700	         56.44257000	          0.98471200	          0.00000000	         -0.30307400	          0.00000000	          0.00000000	          0.00000000	          0.00000000	          0.00000000	          0.00000000	          0.00000000	        -10.98917800	          0.00000000	          0.00000000	          0.00000000	          0.00000000	
          0.09687500	        144.09339900	       1625.72680700	         54.26457200	          0.98044800	          0.00000000	         -0.30364300	          0.00000000	          0.00000000	          0.00000000	          0.00000000	          0.00000000	          0.00000000	          0.00000000	        -10.06388600	          0.00000000	          0.00000000	          0.00000000	          0.00000000	
          0.09791700	        150.25761400	       1608.53051800	         52.23404300	          0.97622200	          0.00000000	         -0.30417100	          0.00000000	          0.00000000	          0.00000000	          0.00000000	          0.00000000	          0.00000000	          0.00000000	         -9.17348000	          0.00000000	          0.00000000	          0.00000000	          0.00000000	
          0.09895800	        156.28356900	       1590.91967800	         50.35651800	          0.97203400	          0.00000000	         -0.30465800	          0.00000000	          0.00000000	          0.00000000	          0.00000000	          0.00000000	          0.00000000	          0.00000000	         -8.31888200	          0.00000000	          0.00000000	          0.00000000	          0.00000000	
          0.10000000	        162.16709900	       1572.90063500	         48.63523900	          0.96788800	          0.00000000	         -0.30510300	          0.00000000	          0.00000000	          0.00000000	          0.00000000	          0.00000000	          0.00000000	          0.00000000	         -7.50087300	          0.00000000	          0.00000000	          0.00000000	          0.00000000	
          0.10104200	        167.90409900	       1554.48022500	         47.07116300	          0.96378300	          0.00000000	         -0.30550800	          0.00000000	          0.00000000	          0.00000000	          0.00000000	          0.00000000	          0.00000000	          0.00000000	         -6.72009200	          0.00000000	          0.00000000	          0.00000000	          0.00000000	
          0.10208300	        173.49020400	       1535.66516100	         45.66304000	          0.95972000	          0.00000000	         -0.30587300	          0.00000000	          0.00000000	          0.00000000	          0.00000000	          0.00000000	          0.00000000	          0.00000000	         -5.97703600	          0.00000000	          0.00000000	          0.00000000	          0.00000000	
          0.10312500	        178.92033400	       1516.46179200	         44.40750500	          0.95569800	          0.00000000	         -0.30619900	          0.00000000	          0.00000000	          0.00000000	          0.00000000	          0.00000000	          0.00000000	          0.00000000	         -5.27206200	          0.00000000	          0.00000000	          0.00000000	          0.00000000	
          0.10416700	        184.18862900	       1496.87609900	         43.29920200	          0.95171600	          0.00000000	         -0.30648900	          0.00000000	          0.00000000	          0.00000000	          0.00000000	          0.00000000	          0.00000000	          0.00000000	         -4.60538500	          0.00000000	          0.00000000	          0.00000000	          0.00000000	
          0.10520800	        189.28843700	       1476.91333000	         42.33095600	          0.94777500	          0.00000000	         -0.30674400	          0.00000000	          0.00000000	          0.00000000	          0.00000000	          0.00000000	          0.00000000	          0.00000000	         -3.97708400	          0.00000000	          0.00000000	          0.00000000	          0.00000000	
          0.10625000	        194.21229600	       1456.57812500	         41.49394600	          0.94387300	          0.00000000	         -0.30696700	          0.00000000	          0.00000000	          0.00000000	          0.00000000	          0.00000000	          0.00000000	          0.00000000	         -3.38710200	          0.00000000	          0.00000000	          0.00000000	          0.00000000	
          0.10729200	        198.95230100	       1435.87463400	         40.77792400	          0.94001000	          0.00000000	         -0.30715900	          0.00000000	          0.00000000	          0.00000000	          0.00000000	          0.00000000	          0.00000000	          0.00000000	         -2.83525400	          0.00000000	          0.00000000	          0.00000000	          0.00000000	
          0.10833300	        203.50024400	       1414.80651900	         40.17144400	          0.93618600	          0.00000000	         -0.30732400	          0.00000000	          0.00000000	          0.00000000	          0.00000000	          0.00000000	          0.00000000	          0.00000000	         -2.32122600	          0.00000000	          0.00000000	          0.00000000	          0.00000000	
